<svg xmlns="http://www.w3.org/2000/svg" width="64" height="64" viewBox="0 0 64 64">
  <defs>
    <linearGradient id="gradient" x1="0%" y1="0%" x2="100%" y2="100%">
      <stop offset="0%" style="stop-color:#0073aa;stop-opacity:1" />
      <stop offset="100%" style="stop-color:#005a87;stop-opacity:1" />
    </linearGradient>
  </defs>
  
  <!-- Background Circle -->
  <circle cx="32" cy="32" r="28" fill="url(#gradient)" />
  
  <!-- Chat Bubble -->
  <path d="M20 22 C20 20, 22 18, 24 18 L40 18 C42 18, 44 20, 44 22 L44 32 C44 34, 42 36, 40 36 L28 36 L22 42 L22 36 C20 36, 20 34, 20 32 Z" fill="white" />
  
  <!-- AI Brain dots -->
  <circle cx="28" cy="26" r="2" fill="#0073aa" />
  <circle cx="32" cy="26" r="2" fill="#0073aa" />
  <circle cx="36" cy="26" r="2" fill="#0073aa" />
  
  <!-- Connection lines -->
  <line x1="28" y1="30" x2="32" y2="30" stroke="#0073aa" stroke-width="1" />
  <line x1="32" y1="30" x2="36" y2="30" stroke="#0073aa" stroke-width="1" />
</svg>